<svg width="169" height="178" viewBox="0 0 169 178" fill="none" xmlns="http://www.w3.org/2000/svg">
<g filter="url(#filter0_d_25_29)">
<path d="M84.4922 50C82.5597 50.0012 80.7023 50.7484 79.3072 52.0856C77.912 53.4229 77.087 55.247 77.0039 57.1777L62.1035 66.5938C60.787 65.5634 59.164 65.0025 57.4922 65C55.9196 65.0016 54.3873 65.4976 53.1119 66.4177C51.8366 67.3378 50.8827 68.6355 50.3852 70.1274C49.8877 71.6192 49.8717 73.2297 50.3396 74.7311C50.8074 76.2326 51.7353 77.5489 52.9922 78.4941V99.5117C51.7378 100.458 50.812 101.774 50.3457 103.274C49.8794 104.774 49.896 106.383 50.3933 107.874C50.8905 109.364 51.8432 110.661 53.1169 111.58C54.3907 112.5 55.9211 112.997 57.4922 113C59.164 112.998 60.787 112.437 62.1035 111.406L77.0039 120.816C77.0855 122.748 77.9099 124.574 79.3052 125.912C80.7005 127.251 82.5587 127.999 84.4922 128C86.4247 127.999 88.2821 127.252 89.6773 125.914C91.0724 124.577 91.8974 122.753 91.9805 120.822L106.881 111.406C108.197 112.437 109.82 112.998 111.492 113C113.065 112.998 114.597 112.502 115.872 111.582C117.148 110.662 118.102 109.364 118.599 107.873C119.097 106.381 119.113 104.77 118.645 103.269C118.177 101.767 117.249 100.451 115.992 99.5059V78.4883C117.247 77.5423 118.172 76.2263 118.639 74.726C119.105 73.2257 119.088 71.6168 118.591 70.1264C118.094 68.636 117.141 67.3395 115.867 66.4196C114.594 65.4998 113.063 65.0033 111.492 65C109.82 65.0025 108.197 65.5634 106.881 66.5938L91.9805 57.1836C91.8989 55.2518 91.0745 53.4262 89.6792 52.0877C88.2839 50.7492 86.4257 50.0013 84.4922 50ZM76.1192 64.8418L58.9922 95.4746V79.8477C60.7878 79.4786 62.3861 78.4648 63.4851 76.9977C64.5841 75.5305 65.1077 73.7117 64.957 71.8848L76.1192 64.8418ZM82.9922 64.8418C83.4856 64.9448 83.9882 64.9978 84.4922 65C84.9982 64.9982 85.5027 64.9452 85.9981 64.8418L105.92 100.49C105.031 101.483 104.422 102.694 104.156 104H64.834C64.5693 102.692 63.9605 101.478 63.0703 100.484L82.9922 64.8418ZM92.8711 64.8418L104.022 71.8848C103.873 73.7115 104.398 75.5296 105.498 76.9957C106.598 78.4617 108.197 79.4741 109.992 79.8418V95.4805L92.8711 64.8418ZM71.1094 110H97.875L89.7363 115.145C88.3359 113.772 86.4534 113.002 84.4922 113C82.533 113.003 80.6529 113.773 79.2539 115.145L71.1094 110Z" fill="#0DFF00"/>
</g>
<defs>
<filter id="filter0_d_25_29" x="0" y="0" width="168.984" height="178" filterUnits="userSpaceOnUse" color-interpolation-filters="sRGB">
<feFlood flood-opacity="0" result="BackgroundImageFix"/>
<feColorMatrix in="SourceAlpha" type="matrix" values="0 0 0 0 0 0 0 0 0 0 0 0 0 0 0 0 0 0 127 0" result="hardAlpha"/>
<feOffset/>
<feGaussianBlur stdDeviation="25"/>
<feComposite in2="hardAlpha" operator="out"/>
<feColorMatrix type="matrix" values="0 0 0 0 0.0901961 0 0 0 0 0.8 0 0 0 0 0.152941 0 0 0 1 0"/>
<feBlend mode="normal" in2="BackgroundImageFix" result="effect1_dropShadow_25_29"/>
<feBlend mode="normal" in="SourceGraphic" in2="effect1_dropShadow_25_29" result="shape"/>
</filter>
</defs>
</svg>
