<svg width="245" height="239" viewBox="0 0 245 239" fill="none" xmlns="http://www.w3.org/2000/svg">
<path d="M94.6067 137.849L93.1995 137.164C92.4711 136.81 91.0514 135.71 89.1917 133.81C87.3993 131.978 85.3771 129.589 83.4426 126.894C79.5153 121.421 76.2092 115.049 75.5979 109.729L75.3616 107.676L73.301 107.521L73.0833 107.5C71.9641 107.362 70.3841 106.757 68.8508 104.947C67.1882 102.985 65.4891 99.4875 64.6975 93.4092C63.9482 87.659 66.9091 84.7385 68.2561 83.9775L70.3 82.8232L69.2766 80.7119H69.2776C69.2774 80.7116 69.2771 80.7109 69.2766 80.71C69.2752 80.707 69.2717 80.7014 69.2678 80.6934C69.26 80.6769 69.247 80.6492 69.2297 80.6123C69.1952 80.5386 69.1426 80.425 69.0745 80.2744C68.9377 79.9722 68.7387 79.5207 68.4983 78.9424C68.017 77.7845 67.3719 76.1232 66.7268 74.1299C65.427 70.1138 64.1702 64.8821 64.1702 59.7529C64.1702 43.8539 68.5113 29.581 77.8196 19.3096C87.0881 9.08214 101.573 2.5 122.542 2.5C133.568 2.5 140.634 6.03079 144.914 9.42773C147.071 11.1395 148.551 12.8412 149.481 14.0938C149.945 14.7196 150.271 15.2317 150.474 15.5732C150.575 15.7436 150.645 15.8714 150.687 15.9492C150.707 15.988 150.721 16.0143 150.728 16.0273L150.733 16.0371L151.409 17.4385H152.979C162.37 17.4386 169.226 22.034 173.853 29.584C178.545 37.2421 180.914 47.9433 180.914 59.7529C180.914 65.4292 179.65 70.6637 178.365 74.5068C177.724 76.4207 177.086 77.9705 176.612 79.0332C176.375 79.5637 176.179 79.9714 176.046 80.2412C175.98 80.3758 175.929 80.4764 175.896 80.54C175.879 80.5719 175.868 80.5951 175.861 80.6084C175.858 80.6142 175.855 80.6179 175.854 80.6201L174.698 82.7754L176.828 83.9775C178.176 84.739 181.136 87.6495 180.387 93.4092C179.595 99.4875 177.896 102.985 176.234 104.947C174.598 106.878 172.909 107.437 171.783 107.521L169.723 107.676L169.487 109.729C168.875 115.049 165.569 121.421 161.642 126.894C159.707 129.589 157.685 131.978 155.893 133.81C154.033 135.71 152.613 136.81 151.885 137.164L150.479 137.849V159.743L150.611 160.134C153.534 168.743 161.493 173.452 170.64 176.917C175.267 178.67 180.395 180.175 185.633 181.688C190.904 183.211 196.303 184.748 201.618 186.589C212.263 190.277 222.261 195.089 229.611 203.04C236.525 210.52 241.286 220.992 241.746 236.5H3.33813C3.79877 220.992 8.55913 210.52 15.4739 203.04C22.8239 195.089 32.8217 190.277 43.4661 186.589C48.781 184.748 54.1806 183.211 59.4514 181.688C64.6899 180.175 69.8177 178.67 74.4446 176.917C83.5915 173.452 91.5504 168.743 94.4739 160.134L94.6067 159.743V137.849Z" stroke="#0DFF00" stroke-width="5"/>
</svg>
