<svg width="493" height="572" viewBox="0 0 493 572" fill="none" xmlns="http://www.w3.org/2000/svg">
<g clip-path="url(#clip0_25_165)">
<path opacity="0.967" fill-rule="evenodd" clip-rule="evenodd" d="M492.319 404.968C492.319 419.378 492.319 433.789 492.319 448.198C489.358 471.107 482.552 493.145 471.899 514.315C471.216 515.614 470.309 515.826 469.177 514.951C494.568 450.87 480.5 395.348 426.976 348.387C377.186 312.761 323.188 305.979 264.978 328.043C208.71 355.122 178.761 398.352 175.13 457.734C176.909 508.965 200.052 549.228 244.558 578.525C303.537 610.82 361.621 609.548 418.808 574.711C428.13 568.66 436.298 561.454 443.312 553.096C444.444 552.221 445.351 552.433 446.034 553.731C396.075 612.863 330.731 638.929 250.003 631.928C209.392 625.954 173.997 610.061 143.819 584.247C82.2165 634.104 12.7888 646.184 -64.4639 620.484C-102.678 606.607 -133.989 584.356 -158.396 553.731C-157.713 552.433 -156.805 552.221 -155.673 553.096C-122.569 586.977 -81.2756 603.083 -31.792 601.412C42.9463 593.486 89.9121 555.553 109.105 487.614C119.386 427.809 99.1923 379.281 48.5264 342.029C-2.30426 311.128 -55.3961 307.314 -110.749 330.586C-170.688 363.085 -198.142 411.613 -193.109 476.171C-191.259 489.656 -187.402 502.583 -181.538 514.951C-181.992 515.164 -182.446 515.375 -182.899 515.587C-194.599 494.258 -201.859 471.794 -204.681 448.198C-204.681 433.789 -204.681 419.378 -204.681 404.968C-192.096 325.612 -145.357 272.421 -64.4639 245.396C-80.1959 173.349 -58.8688 112.742 -0.481445 63.5742C34.7348 36.102 75.1199 20.6322 120.677 17.165C49.1608 31.6174 6.27892 72.3049 -7.96875 139.228C-13.7558 206.198 14.6048 255.998 77.1143 288.627C147.89 315.417 209.377 302.915 261.574 251.118C297.389 208.035 306.011 160.567 287.439 108.712C264.655 58.4116 224.496 27.896 166.962 17.165C249.084 25.3286 307.849 64.3208 343.254 134.142C358.704 170.407 361.652 207.492 352.103 245.396C432.995 272.421 479.734 325.612 492.319 404.968Z" fill="#0DFF00"/>
<path opacity="0.961" fill-rule="evenodd" clip-rule="evenodd" d="M124.761 179.915C163.635 177.386 200.391 184.379 235.028 200.894C243.96 205.268 252.128 210.565 259.532 216.788C251.53 229.981 241.32 241.424 228.902 251.118C185.42 223.345 138.908 218.048 89.3662 235.225C78.5859 239.726 68.3759 245.023 58.7363 251.118C47.3148 242.501 37.7855 232.329 30.1484 220.603C28.8116 219.002 28.3583 217.307 28.7871 215.517C57.5847 196.025 89.5759 184.157 124.761 179.915Z" fill="#0DFF00"/>
<path opacity="0.96" fill-rule="evenodd" clip-rule="evenodd" d="M-45.4053 336.307C-28.7099 335.897 -12.6013 338.44 2.92188 343.936C-0.542698 398.283 21.9192 440.453 70.3076 470.449C76.0865 473.042 81.7591 475.797 87.3242 478.714C85.1611 494.222 79.4884 508.633 70.3076 521.944C0.82679 492.203 -37.9711 441.767 -46.0859 370.638C-46.9599 359.17 -46.7326 347.727 -45.4053 336.307Z" fill="#0DFF00"/>
<path opacity="0.96" fill-rule="evenodd" clip-rule="evenodd" d="M316.708 336.308C322.153 336.308 327.599 336.308 333.044 336.308C339.322 408.862 310.734 465.867 247.28 507.322C237.511 512.52 227.529 517.395 217.331 521.944C208.791 508.955 202.893 494.969 199.634 479.985C259.423 451.386 287.558 405.612 284.036 342.665C295.022 340.254 305.913 338.135 316.708 336.308Z" fill="#0DFF00"/>
</g>
<defs>
<clipPath id="clip0_25_165">
<rect width="493" height="572" fill="white"/>
</clipPath>
</defs>
</svg>
